<?xml version="1.0" encoding="utf-8"?>
<!-- Generator: Adobe Illustrator 18.1.1, SVG Export Plug-In . SVG Version: 6.00 Build 0)  -->
<!DOCTYPE svg PUBLIC "-//W3C//DTD SVG 1.1//EN" "http://www.w3.org/Graphics/SVG/1.1/DTD/svg11.dtd" [
	<!ENTITY ns_extend "http://ns.adobe.com/Extensibility/1.0/">
	<!ENTITY ns_ai "http://ns.adobe.com/AdobeIllustrator/10.0/">
	<!ENTITY ns_graphs "http://ns.adobe.com/Graphs/1.0/">
	<!ENTITY ns_vars "http://ns.adobe.com/Variables/1.0/">
	<!ENTITY ns_imrep "http://ns.adobe.com/ImageReplacement/1.0/">
	<!ENTITY ns_sfw "http://ns.adobe.com/SaveForWeb/1.0/">
	<!ENTITY ns_custom "http://ns.adobe.com/GenericCustomNamespace/1.0/">
	<!ENTITY ns_adobe_xpath "http://ns.adobe.com/XPath/1.0/">
]>
<svg version="1.1" id="Layer_1" xmlns:x="&ns_extend;" xmlns:i="&ns_ai;" xmlns:graph="&ns_graphs;"
	 xmlns="http://www.w3.org/2000/svg" xmlns:xlink="http://www.w3.org/1999/xlink" x="0px" y="0px" width="1000px" height="320.3px"
	 viewBox="0 0 1000 320.3" enable-background="new 0 0 1000 320.3" xml:space="preserve">
<metadata>
	<sfw  xmlns="&ns_sfw;">
		<slices></slices>
		<sliceSourceBounds  height="300.5" width="991.2" x="4.2" y="-650.1" bottomLeftOrigin="true"></sliceSourceBounds>
	</sfw>
</metadata>
<g>
	<g>
		<path fill="#EFED22" d="M51.5,250.3c3.9,0,7.4,0.6,10.3,1.9c2.9,1.2,6,3.4,9.3,6.6l7.4-8.1c-7.2-7.9-16.1-11.8-26.8-11.8
			c-10.7,0-19.5,3.4-26.5,10.3c-7,6.8-10.5,15.4-10.5,25.6c0,10.3,3.4,18.7,10.3,25.4c6.9,6.7,15.5,10.1,25.9,10.1
			c10.4,0,19.3-4,26.6-12.1l-7.5-7.7c-3.2,3-6.2,5.1-9.1,6.5c-2.9,1.3-6.3,2-10.4,2c-6.4,0-12-2.3-16.7-7c-4.7-4.7-7-10.5-7-17.5
			s2.4-12.7,7.1-17.3C38.7,252.6,44.6,250.3,51.5,250.3z M199.4,238.9c-10.3,0-18.9,3.4-25.8,10.2c-7,6.8-10.4,15.3-10.4,25.4
			c0,10.2,3.5,18.6,10.4,25.4c7,6.8,15.6,10.2,25.8,10.2c10.3,0,18.9-3.4,25.8-10.2c7-6.8,10.4-15.3,10.4-25.4
			c0-10.2-3.5-18.6-10.4-25.4C218.3,242.3,209.6,238.9,199.4,238.9z M216.7,292.2c-4.7,4.9-10.5,7.3-17.3,7.3
			c-6.8,0-12.6-2.4-17.3-7.3c-4.7-4.9-7-10.8-7-17.7c0-6.9,2.3-12.8,7-17.7c4.7-4.9,10.5-7.3,17.3-7.3c6.8,0,12.6,2.4,17.3,7.3
			c4.7,4.9,7,10.8,7,17.7C223.7,281.5,221.4,287.4,216.7,292.2z M358.3,238.9c-10.3,0-18.9,3.4-25.8,10.2
			c-7,6.8-10.4,15.3-10.4,25.4c0,10.2,3.5,18.6,10.4,25.4c7,6.8,15.6,10.2,25.8,10.2c10.3,0,18.9-3.4,25.8-10.2
			c7-6.8,10.4-15.3,10.4-25.4c0-10.2-3.5-18.6-10.4-25.4C377.2,242.3,368.5,238.9,358.3,238.9z M375.6,292.2
			c-4.7,4.9-10.5,7.3-17.3,7.3c-6.8,0-12.6-2.4-17.3-7.3c-4.7-4.9-7-10.8-7-17.7c0-6.9,2.3-12.8,7-17.7c4.7-4.9,10.5-7.3,17.3-7.3
			c6.8,0,12.6,2.4,17.3,7.3c4.7,4.9,7,10.8,7,17.7C382.6,281.5,380.3,287.4,375.6,292.2z M545,240.6h-14.8l-31.5,33.6v-33.6H487
			v68.9h11.6v-19.3l10.1-10.8l22.9,30.2h13.8l-28.1-38.7L545,240.6z M647.7,280.1h33v-10.4h-33v-18.2h36.8v-10.9h-48.4v68.9h49.6
			v-10.9h-38V280.1z M835.3,263c0-7.8-2.3-13.5-6.8-17.1c-4.5-3.5-12.1-5.3-22.6-5.3h-25.6v68.9h11.6v-23.2h15.3l16.5,23.2h14.8
			l-18-25C830.3,281.5,835.3,274.3,835.3,263z M806.4,275.8h-14.5v-24.6h14.8c6.2,0,10.6,0.8,13,2.5c2.4,1.7,3.6,4.8,3.6,9.3
			c0,4.5-1.2,7.8-3.5,9.8C817.5,274.8,813,275.8,806.4,275.8z M955.7,271.9l-18.8-31.3h-12.7l25.6,41.7v27.2h11.6v-27.2l25.8-41.7
			h-12.7L955.7,271.9z M141,32.4c-15.4-15-34.4-22.6-56.9-22.6c-22.5,0-41.5,7.5-56.9,22.6C11.9,47.4,4.2,66.1,4.2,88.5
			c0,22.4,7.7,41.1,23.1,56.1c15.4,15,34.4,22.6,56.9,22.6c22.5,0,41.5-7.5,56.9-22.6c15.4-15,23.1-33.7,23.1-56.1
			C164.1,66.1,156.4,47.4,141,32.4z M116.4,123.2c-8.7,9.5-19.4,14.3-32.1,14.3c-12.7,0-23.4-4.8-32.1-14.3
			C43.4,113.7,39,102.2,39,88.6c0-13.6,4.4-25.2,13.1-34.8c8.7-9.6,19.4-14.4,32.1-14.4c12.7,0,23.4,4.8,32.1,14.4
			c8.7,9.6,13.1,21.2,13.1,34.8C129.4,102.2,125.1,113.7,116.4,123.2z M296.1,111.1c19.3-7.1,29-22.9,29-47.3
			c0-17.7-5-30.6-15.1-38.6c-10.1-8-27-12-50.7-12h-57.7v152.3h34V117h23.5l33.8,48.6h41.8L296.1,111.1z M284.1,81.9
			c-4.2,3.8-12.1,5.7-23.8,5.7h-24.8V42.5H261c10.9,0,18.5,1.5,22.9,4.6c4.4,3.1,6.5,8.7,6.5,16.9C290.5,72.2,288.4,78.2,284.1,81.9
			z M368.7,165.6h34V13.3h-34V165.6z M520.1,9.8c-22.5,0-41.5,7.5-56.9,22.6c-15.4,15-23.1,33.7-23.1,56.1
			c0,22.4,7.7,41.1,23.1,56.1c15.4,15,34.4,22.6,56.9,22.6c22.5,0,41.5-7.5,56.9-22.6c15.4-15,23.1-33.7,23.1-56.1
			c0-22.4-7.7-41.1-23.1-56.1C561.6,17.3,542.6,9.8,520.1,9.8z M552.4,123.2c-8.7,9.5-19.4,14.3-32.1,14.3
			c-12.7,0-23.4-4.8-32.1-14.3c-8.7-9.5-13.1-21.1-13.1-34.6c0-13.6,4.4-25.2,13.1-34.8c8.7-9.6,19.4-14.4,32.1-14.4
			c12.7,0,23.4,4.8,32.1,14.4c8.7,9.6,13.1,21.2,13.1,34.8C565.4,102.2,561.1,113.7,552.4,123.2z M744.1,111.3l-74.7-98.1h-31.8
			v152.3h34V70.2l72.6,95.4h34V13.3h-34V111.3z M832,13.1c-5.2,0-9.4,1.7-12.9,5c-3.4,3.3-5.1,7.9-5.1,13.6c0,5.7,2.4,10.2,7.2,13.4
			l-9.8,23.3h17.9l15.9-23.1c3.2-4.9,4.8-9.9,4.8-15c0-5.1-1.7-9.2-5.1-12.4C841.5,14.7,837.2,13.1,832,13.1z M954.9,133.2
			c-3.6,2.7-8.5,4-14.7,4c-13.9,0-29.1-7.2-45.5-21.6l-20.3,24.8c19.3,17.9,41,26.8,65.1,26.8c16.7,0,30.2-4.2,40.4-12.7
			c10.2-8.5,15.4-19.6,15.4-33.2c0-13.7-4-24-12-31.2c-8-7.1-19.2-12.5-33.7-16c-14.5-3.6-23.7-6.6-27.7-9.3c-4-2.6-6-6.1-6-10.6
			c0-4.4,1.6-8,4.9-10.7c3.3-2.7,7.7-4,13.4-4c14.1,0,27.7,5,41,15l17.2-24.8c-7.6-6.4-16.4-11.3-26.6-14.8
			c-10.2-3.5-20.3-5.2-30.5-5.2c-15.5,0-28.5,3.9-38.9,11.8c-10.4,7.8-15.6,19-15.6,33.4c0,14.5,4.1,25.1,12.3,31.8
			c8.2,6.8,21.2,12.2,38.9,16.5c11.2,2.8,18.7,5.5,22.4,8.2c3.8,2.7,5.7,6.3,5.7,10.9C960.3,126.9,958.5,130.6,954.9,133.2z"/>
	</g>
</g>
</svg>
